<svg xmlns="http://www.w3.org/2000/svg" xmlns:xlink="http://www.w3.org/1999/xlink" viewBox="0 0 149.01 152.18"><defs><style>.cls-1{fill:url(#Degradado_sin_nombre_6);}</style><linearGradient id="Degradado_sin_nombre_6" x1="74.51" y1="146.18" x2="74.51" y2="6" gradientUnits="userSpaceOnUse"><stop offset="0" stop-color="#ff46af"/><stop offset="1" stop-color="#ffff86"/></linearGradient></defs><g id="Capa_2" data-name="Capa 2"><g id="Capa_1-2" data-name="Capa 1"><polygon class="cls-1" points="6 146.18 6 102.85 28.31 103.11 6 83.99 6 29.33 28.86 6 119.29 6 143.01 29.26 143.01 122.88 119.72 146.18 6 146.18"/><path d="M116.84,12,137,31.78V120.4l-19.78,19.78H12V108.92l68.44.79V97.85H31.38L12,81.23V31.78L31.38,12h85.46M69.76,72.13h9.89V38.9H69.76V72.13M121.74,0H26.34L22.81,3.6,3.43,23.38,0,26.88V86.75l4.19,3.59,7.68,6.58L0,96.78v55.4H122.2l3.52-3.52,19.78-19.78,3.51-3.51V26.74l-3.6-3.53L125.24,3.43,121.74,0Z"/></g></g></svg>